<?xml version="1.0" encoding="UTF-8"?>
<svg xmlns="http://www.w3.org/2000/svg" viewBox="0 0 64 64" width="64" height="64">
  <defs>
    <linearGradient id="ubG" x1="0" y1="0" x2="0" y2="1">
      <stop offset="0%" stop-color="#8d6e63"/>
      <stop offset="60%" stop-color="#5d4037"/>
      <stop offset="100%" stop-color="#3e2723"/>
    </linearGradient>
    <linearGradient id="ubTop" x1="0" y1="0" x2="0" y2="1">
      <stop offset="0%" stop-color="#a1887f"/>
      <stop offset="100%" stop-color="#6d4c41"/>
    </linearGradient>
    <linearGradient id="ubMetal" x1="0" y1="0" x2="0" y2="1">
      <stop offset="0%" stop-color="#b0bec5"/>
      <stop offset="100%" stop-color="#546e7a"/>
    </linearGradient>
  </defs>
  <path d="M 10,22 L 24,22 L 24,42 L 22,46 L 10,46 L 8,42 Z" fill="url(#ubG)" stroke="#3e2723" stroke-width="1"/>
  <rect x="10" y="22" width="14" height="5" fill="url(#ubTop)" stroke="#3e2723" stroke-width="0.6"/>
  <path d="M 40,22 L 54,22 L 56,42 L 54,46 L 42,46 L 40,42 Z" fill="url(#ubG)" stroke="#3e2723" stroke-width="1"/>
  <rect x="40" y="22" width="14" height="5" fill="url(#ubTop)" stroke="#3e2723" stroke-width="0.6"/>
  <rect x="8" y="40" width="14" height="5" rx="1" fill="url(#ubMetal)" stroke="#37474f" stroke-width="0.6"/>
  <rect x="8" y="45" width="14" height="3" rx="0.5" fill="#3e2723" stroke="#1b1b1b" stroke-width="0.4"/>
  <rect x="42" y="40" width="14" height="5" rx="1" fill="url(#ubMetal)" stroke="#37474f" stroke-width="0.6"/>
  <rect x="42" y="45" width="14" height="3" rx="0.5" fill="#3e2723" stroke="#1b1b1b" stroke-width="0.4"/>
  <rect x="13" y="28" width="8" height="3" rx="0.5" fill="url(#ubMetal)" stroke="#37474f" stroke-width="0.4"/>
  <rect x="43" y="28" width="8" height="3" rx="0.5" fill="url(#ubMetal)" stroke="#37474f" stroke-width="0.4"/>
  <rect x="12" y="32" width="3" height="6" fill="#ffffff" opacity="0.2"/>
  <rect x="42" y="32" width="3" height="6" fill="#ffffff" opacity="0.2"/>
  <line x1="14" y1="33" x2="20" y2="33" stroke="#3e2723" stroke-width="0.6"/>
  <line x1="14" y1="36" x2="20" y2="36" stroke="#3e2723" stroke-width="0.6"/>
  <line x1="44" y1="33" x2="50" y2="33" stroke="#3e2723" stroke-width="0.6"/>
  <line x1="44" y1="36" x2="50" y2="36" stroke="#3e2723" stroke-width="0.6"/>
</svg>
