<?xml version="1.0" encoding="UTF-8"?>
<svg xmlns="http://www.w3.org/2000/svg" viewBox="0 0 64 64" width="64" height="64">
  <defs>
    <linearGradient id="lhG" x1="0" y1="0" x2="0" y2="1">
      <stop offset="0%" stop-color="#8d6e63"/>
      <stop offset="100%" stop-color="#3e2723"/>
    </linearGradient>
    <linearGradient id="lhMask" x1="0" y1="0" x2="0" y2="1">
      <stop offset="0%" stop-color="#a1887f"/>
      <stop offset="100%" stop-color="#5d4037"/>
    </linearGradient>
  </defs>
  <path d="M 14,30 Q 14,12 32,10 Q 50,12 50,30 L 50,44 Q 50,48 46,48 L 18,48 Q 14,48 14,44 Z" fill="url(#lhG)" stroke="#1b0000" stroke-width="1"/>
  <path d="M 22,32 L 42,32 L 42,42 Q 42,44 40,44 L 24,44 Q 22,44 22,42 Z" fill="url(#lhMask)" stroke="#1b0000" stroke-width="0.5" opacity="0.6"/>
  <rect x="24" y="36" width="6" height="2" fill="#000" opacity="0.7"/>
  <rect x="34" y="36" width="6" height="2" fill="#000" opacity="0.7"/>
  <path d="M 18,30 Q 18,18 32,16 Q 46,18 46,30" fill="none" stroke="#3e2723" stroke-width="0.6" opacity="0.5"/>
  <path d="M 26,22 L 30,18 M 38,22 L 34,18" stroke="#3e2723" stroke-width="0.6" opacity="0.5"/>
  <path d="M 14,30 Q 12,32 14,40" fill="url(#lhG)" stroke="#1b0000" stroke-width="0.5"/>
  <path d="M 50,30 Q 52,32 50,40" fill="url(#lhG)" stroke="#1b0000" stroke-width="0.5"/>
  <path d="M 24,16 L 28,8 M 32,14 L 32,6 M 40,16 L 36,8" stroke="#5d4037" stroke-width="0.5" opacity="0.6"/>
  <ellipse cx="28" cy="22" rx="3" ry="2" fill="#ffffff" opacity="0.15"/>
  <circle cx="32" cy="14" r="1" fill="#4e342e"/>
</svg>
