<?xml version="1.0" encoding="UTF-8"?>
<svg xmlns="http://www.w3.org/2000/svg" viewBox="0 0 64 64" width="64" height="64">
  <defs>
    <linearGradient id="haG" x1="0" y1="0" x2="0" y2="1">
      <stop offset="0%" stop-color="#78909c"/>
      <stop offset="60%" stop-color="#455a64"/>
      <stop offset="100%" stop-color="#263238"/>
    </linearGradient>
    <linearGradient id="haShoulder" x1="0" y1="0" x2="0" y2="1">
      <stop offset="0%" stop-color="#90a4ae"/>
      <stop offset="100%" stop-color="#37474f"/>
    </linearGradient>
  </defs>
  <path d="M 12,16 L 52,16 L 56,28 L 50,50 L 38,58 L 32,60 L 26,58 L 14,50 L 8,28 Z" fill="url(#haG)" stroke="#1c1c1c" stroke-width="1.4"/>
  <line x1="32" y1="20" x2="32" y2="52" stroke="#1c1c1c" stroke-width="1.6"/>
  <line x1="18" y1="30" x2="46" y2="30" stroke="#1c1c1c" stroke-width="1.3"/>
  <line x1="16" y1="40" x2="48" y2="40" stroke="#1c1c1c" stroke-width="1.3"/>
  <ellipse cx="12" cy="20" rx="7" ry="5" fill="url(#haShoulder)" stroke="#1c1c1c" stroke-width="0.8"/>
  <ellipse cx="52" cy="20" rx="7" ry="5" fill="url(#haShoulder)" stroke="#1c1c1c" stroke-width="0.8"/>
  <ellipse cx="12" cy="20" rx="3" ry="2" fill="#ffd700" stroke="#7c5100" stroke-width="0.4"/>
  <ellipse cx="52" cy="20" rx="3" ry="2" fill="#ffd700" stroke="#7c5100" stroke-width="0.4"/>
  <rect x="20" y="46" width="24" height="5" fill="#5d4037" stroke="#1b0000" stroke-width="0.6"/>
  <rect x="28" y="44" width="8" height="9" fill="#ffd54f" stroke="#7c5100" stroke-width="0.6"/>
  <rect x="29" y="45" width="6" height="7" fill="#ffeb3b"/>
  <path d="M 18,22 L 24,20 L 22,38 L 18,36 Z" fill="#ffffff" opacity="0.18"/>
  <circle cx="14" cy="22" r="1.2" fill="#1c1c1c"/>
  <circle cx="50" cy="22" r="1.2" fill="#1c1c1c"/>
  <circle cx="18" cy="32" r="0.9" fill="#1c1c1c"/>
  <circle cx="46" cy="32" r="0.9" fill="#1c1c1c"/>
</svg>
