<?xml version="1.0" encoding="UTF-8"?>
<svg xmlns="http://www.w3.org/2000/svg" viewBox="0 0 64 64" width="64" height="64">
  <defs>
    <linearGradient id="maG" x1="0" y1="0" x2="0" y2="1">
      <stop offset="0%" stop-color="#7b1fa2"/>
      <stop offset="100%" stop-color="#311b92"/>
    </linearGradient>
    <linearGradient id="maHood" x1="0" y1="0" x2="0" y2="1">
      <stop offset="0%" stop-color="#9c27b0"/>
      <stop offset="100%" stop-color="#4a148c"/>
    </linearGradient>
    <radialGradient id="maOrb" cx="0.4" cy="0.4" r="0.7">
      <stop offset="0%" stop-color="#fff"/>
      <stop offset="100%" stop-color="#ce93d8"/>
    </radialGradient>
  </defs>
  <path d="M 12,8 L 32,4 L 52,8 L 50,18 Q 50,30 32,32 Q 14,30 14,18 Z" fill="url(#maHood)" stroke="#1a0a4a" stroke-width="1"/>
  <path d="M 14,20 L 50,20 L 56,38 L 50,56 L 32,60 L 14,56 L 8,38 Z" fill="url(#maG)" stroke="#1a0a4a" stroke-width="1.2"/>
  <path d="M 32,24 L 32,56" stroke="#1a0a4a" stroke-width="0.5" opacity="0.5"/>
  <circle cx="32" cy="36" r="5" fill="url(#maOrb)" stroke="#4a148c" stroke-width="0.6"/>
  <circle cx="32" cy="36" r="2" fill="#fff" opacity="0.7"/>
  <path d="M 18,32 Q 20,28 24,32 M 40,32 Q 44,28 46,32" fill="none" stroke="#ce93d8" stroke-width="0.5" opacity="0.6"/>
  <path d="M 14,46 Q 20,42 26,46 M 38,46 Q 44,42 50,46" fill="none" stroke="#ce93d8" stroke-width="0.5" opacity="0.6"/>
  <rect x="20" y="50" width="24" height="3" fill="#ffd54f" stroke="#7c5100" stroke-width="0.4"/>
  <rect x="29" y="49" width="6" height="5" fill="#ffd700" stroke="#7c5100" stroke-width="0.4"/>
  <polygon points="32,28 33,30 35,30 33.5,31.5 34,34 32,32.5 30,34 30.5,31.5 29,30 31,30" fill="#fff176" opacity="0.7"/>
  <circle cx="22" cy="14" r="1" fill="#e1bee7"/>
  <circle cx="42" cy="14" r="1" fill="#e1bee7"/>
  <path d="M 18,16 L 22,12 M 46,16 L 42,12" stroke="#4a148c" stroke-width="0.5" opacity="0.6"/>
</svg>
