<?xml version="1.0" encoding="UTF-8"?>
<svg xmlns="http://www.w3.org/2000/svg" viewBox="0 0 64 64" width="64" height="64">
  <defs>
    <linearGradient id="uaG" x1="0" y1="0" x2="0" y2="1">
      <stop offset="0%" stop-color="#42a5f5"/>
      <stop offset="100%" stop-color="#0d47a1"/>
    </linearGradient>
    <linearGradient id="uaTrim" x1="0" y1="0" x2="0" y2="1">
      <stop offset="0%" stop-color="#ffd54f"/>
      <stop offset="100%" stop-color="#f57f17"/>
    </linearGradient>
  </defs>
  <path d="M 14,18 L 50,18 L 53,30 L 48,48 L 38,56 L 32,58 L 26,56 L 16,48 L 11,30 Z" fill="url(#uaG)" stroke="#0d47a1" stroke-width="1.2"/>
  <line x1="32" y1="22" x2="32" y2="50" stroke="#0d47a1" stroke-width="1.5"/>
  <line x1="20" y1="32" x2="44" y2="32" stroke="#0d47a1" stroke-width="1.2"/>
  <ellipse cx="14" cy="20" rx="6" ry="4" fill="#1e88e5" stroke="#0d47a1" stroke-width="0.8"/>
  <ellipse cx="50" cy="20" rx="6" ry="4" fill="#1e88e5" stroke="#0d47a1" stroke-width="0.8"/>
  <rect x="22" y="44" width="20" height="4" fill="url(#uaTrim)" stroke="#e65100" stroke-width="0.5"/>
  <rect x="29" y="43" width="6" height="6" fill="#ff8f00" stroke="#e65100" stroke-width="0.6"/>
  <rect x="30" y="44" width="4" height="4" fill="#ffd54f"/>
  <path d="M 20,22 L 26,20 L 24,38 L 20,36 Z" fill="#ffffff" opacity="0.18"/>
  <circle cx="16" cy="22" r="1" fill="#0d47a1"/>
  <circle cx="48" cy="22" r="1" fill="#0d47a1"/>
  <circle cx="20" cy="30" r="0.8" fill="#0d47a1"/>
  <circle cx="44" cy="30" r="0.8" fill="#0d47a1"/>
  <path d="M 26,16 L 32,12 L 38,16" fill="none" stroke="#0d47a1" stroke-width="0.6" opacity="0.6"/>
  <circle cx="32" cy="12" r="1.2" fill="#ffd700" stroke="#7c5100" stroke-width="0.3"/>
</svg>
