<?xml version="1.0" encoding="UTF-8"?>
<svg xmlns="http://www.w3.org/2000/svg" viewBox="0 0 64 64" width="64" height="64">
  <defs>
    <linearGradient id="hbG" x1="0" y1="0" x2="0" y2="1">
      <stop offset="0%" stop-color="#78909c"/>
      <stop offset="60%" stop-color="#455a64"/>
      <stop offset="100%" stop-color="#263238"/>
    </linearGradient>
    <linearGradient id="hbTop" x1="0" y1="0" x2="0" y2="1">
      <stop offset="0%" stop-color="#90a4ae"/>
      <stop offset="100%" stop-color="#607d8b"/>
    </linearGradient>
    <linearGradient id="hbMetal" x1="0" y1="0" x2="0" y2="1">
      <stop offset="0%" stop-color="#b0bec5"/>
      <stop offset="100%" stop-color="#455a64"/>
    </linearGradient>
  </defs>
  <path d="M 8,20 L 24,20 L 24,40 L 22,48 L 8,48 L 6,40 Z" fill="url(#hbG)" stroke="#1c1c1c" stroke-width="1.2"/>
  <rect x="8" y="20" width="16" height="6" fill="url(#hbTop)" stroke="#1c1c1c" stroke-width="0.7"/>
  <path d="M 40,20 L 56,20 L 58,40 L 56,48 L 42,48 L 40,40 Z" fill="url(#hbG)" stroke="#1c1c1c" stroke-width="1.2"/>
  <rect x="40" y="20" width="16" height="6" fill="url(#hbTop)" stroke="#1c1c1c" stroke-width="0.7"/>
  <rect x="6" y="40" width="16" height="6" rx="1" fill="url(#hbMetal)" stroke="#1c1c1c" stroke-width="0.7"/>
  <rect x="6" y="46" width="16" height="4" rx="0.5" fill="#263238" stroke="#000" stroke-width="0.4"/>
  <rect x="42" y="40" width="16" height="6" rx="1" fill="url(#hbMetal)" stroke="#1c1c1c" stroke-width="0.7"/>
  <rect x="42" y="46" width="16" height="4" rx="0.5" fill="#263238" stroke="#000" stroke-width="0.4"/>
  <rect x="11" y="28" width="10" height="3" rx="0.5" fill="url(#hbMetal)" stroke="#1c1c1c" stroke-width="0.5"/>
  <rect x="11" y="33" width="10" height="3" rx="0.5" fill="url(#hbMetal)" stroke="#1c1c1c" stroke-width="0.5"/>
  <rect x="43" y="28" width="10" height="3" rx="0.5" fill="url(#hbMetal)" stroke="#1c1c1c" stroke-width="0.5"/>
  <rect x="43" y="33" width="10" height="3" rx="0.5" fill="url(#hbMetal)" stroke="#1c1c1c" stroke-width="0.5"/>
  <rect x="14" y="29" width="2" height="1" fill="#1c1c1c"/>
  <rect x="46" y="29" width="2" height="1" fill="#1c1c1c"/>
  <rect x="10" y="32" width="2" height="5" fill="#ffffff" opacity="0.2"/>
  <rect x="44" y="32" width="2" height="5" fill="#ffffff" opacity="0.2"/>
  <circle cx="14" cy="42" r="0.8" fill="#1c1c1c"/>
  <circle cx="46" cy="42" r="0.8" fill="#1c1c1c"/>
</svg>
