<?xml version="1.0" encoding="UTF-8"?>
<svg xmlns="http://www.w3.org/2000/svg" viewBox="0 0 64 64" width="64" height="64">
  <defs>
    <linearGradient id="lbG" x1="0" y1="0" x2="0" y2="1">
      <stop offset="0%" stop-color="#a1887f"/>
      <stop offset="60%" stop-color="#5d4037"/>
      <stop offset="100%" stop-color="#3e2723"/>
    </linearGradient>
    <linearGradient id="lbTop" x1="0" y1="0" x2="0" y2="1">
      <stop offset="0%" stop-color="#bcaaa4"/>
      <stop offset="100%" stop-color="#8d6e63"/>
    </linearGradient>
  </defs>
  <path d="M 10,20 L 24,20 L 24,42 L 22,46 L 10,46 L 8,42 Z" fill="url(#lbG)" stroke="#1b0000" stroke-width="1"/>
  <rect x="10" y="20" width="14" height="5" fill="url(#lbTop)" stroke="#1b0000" stroke-width="0.6"/>
  <path d="M 8,42 L 6,46 L 24,46 L 22,42 Z" fill="url(#lbG)" stroke="#1b0000" stroke-width="0.8"/>
  <path d="M 40,20 L 54,20 L 56,42 L 54,46 L 42,46 L 40,42 Z" fill="url(#lbG)" stroke="#1b0000" stroke-width="1"/>
  <rect x="40" y="20" width="14" height="5" fill="url(#lbTop)" stroke="#1b0000" stroke-width="0.6"/>
  <path d="M 40,42 L 38,46 L 56,46 L 54,42 Z" fill="url(#lbG)" stroke="#1b0000" stroke-width="0.8"/>
  <path d="M 8,38 L 24,38 L 24,40 L 8,40 Z" fill="#1b0000" opacity="0.4"/>
  <path d="M 40,38 L 56,38 L 56,40 L 40,40 Z" fill="#1b0000" opacity="0.4"/>
  <line x1="14" y1="28" x2="20" y2="28" stroke="#1b0000" stroke-width="0.6"/>
  <line x1="14" y1="32" x2="20" y2="32" stroke="#1b0000" stroke-width="0.6"/>
  <line x1="44" y1="28" x2="50" y2="28" stroke="#1b0000" stroke-width="0.6"/>
  <line x1="44" y1="32" x2="50" y2="32" stroke="#1b0000" stroke-width="0.6"/>
  <circle cx="17" cy="28" r="0.5" fill="#1b0000"/>
  <circle cx="47" cy="28" r="0.5" fill="#1b0000"/>
  <rect x="12" y="34" width="2" height="6" fill="#ffffff" opacity="0.2"/>
  <rect x="44" y="34" width="2" height="6" fill="#ffffff" opacity="0.2"/>
  <path d="M 10,40 Q 14,42 18,40" fill="none" stroke="#1b0000" stroke-width="0.4"/>
  <path d="M 46,40 Q 50,42 54,40" fill="none" stroke="#1b0000" stroke-width="0.4"/>
</svg>
