<?xml version="1.0" encoding="UTF-8"?>
<svg xmlns="http://www.w3.org/2000/svg" viewBox="0 0 64 64" width="64" height="64">
  <defs>
    <linearGradient id="shBody" x1="0" y1="0" x2="0" y2="1">
      <stop offset="0%" stop-color="#90a4ae"/>
      <stop offset="50%" stop-color="#546e7a"/>
      <stop offset="100%" stop-color="#263238"/>
    </linearGradient>
    <radialGradient id="shBoss" cx="0.5" cy="0.5" r="0.5">
      <stop offset="0%" stop-color="#ffd700"/>
      <stop offset="100%" stop-color="#b8860b"/>
    </radialGradient>
  </defs>
  <path d="M 32,8 Q 14,10 12,22 Q 12,46 32,58 Q 52,46 52,22 Q 50,10 32,8 Z" fill="url(#shBody)" stroke="#1c1c1c" stroke-width="1"/>
  <path d="M 32,8 Q 14,10 12,22 Q 12,46 32,58 Q 52,46 52,22 Q 50,10 32,8 Z" fill="none" stroke="#cfd8dc" stroke-width="0.5" opacity="0.6"/>
  <circle cx="32" cy="30" r="7" fill="url(#shBoss)" stroke="#7c5100" stroke-width="0.8"/>
  <circle cx="32" cy="30" r="3" fill="#d32f2f" stroke="#7f0000" stroke-width="0.5"/>
  <path d="M 32,12 L 32,20 M 32,40 L 32,50 M 16,18 L 22,22 M 42,38 L 48,42 M 16,42 L 22,38 M 42,22 L 48,18" stroke="#ffd700" stroke-width="0.7" opacity="0.7"/>
  <line x1="32" y1="20" x2="32" y2="40" stroke="#37474f" stroke-width="0.5" opacity="0.5"/>
  <line x1="20" y1="22" x2="44" y2="38" stroke="#37474f" stroke-width="0.5" opacity="0.5"/>
  <line x1="20" y1="38" x2="44" y2="22" stroke="#37474f" stroke-width="0.5" opacity="0.5"/>
</svg>
