<?xml version="1.0" encoding="UTF-8"?>
<svg xmlns="http://www.w3.org/2000/svg" viewBox="0 0 64 64" width="64" height="64">
  <defs>
    <linearGradient id="ktBlade" x1="0" y1="0" x2="0" y2="1">
      <stop offset="0%" stop-color="#eceff1"/>
      <stop offset="50%" stop-color="#b0bec5"/>
      <stop offset="100%" stop-color="#607d8b"/>
    </linearGradient>
    <linearGradient id="ktHandle" x1="0" y1="0" x2="0" y2="1">
      <stop offset="0%" stop-color="#5d4037"/>
      <stop offset="100%" stop-color="#1b0000"/>
    </linearGradient>
  </defs>
  <path d="M 8,52 Q 14,40 30,22 Q 44,10 50,8 Q 50,14 44,22 Q 32,34 22,46 Q 16,54 10,56 Z" fill="url(#ktBlade)" stroke="#263238" stroke-width="0.8"/>
  <path d="M 22,46 Q 32,34 44,22" fill="none" stroke="#cfd8dc" stroke-width="0.5" opacity="0.6"/>
  <rect x="36" y="34" width="14" height="6" fill="url(#ktHandle)" stroke="#1b0000" stroke-width="0.5" rx="1" transform="rotate(45 43 37)"/>
  <rect x="42" y="40" width="8" height="5" fill="#bcaaa4" stroke="#1b0000" stroke-width="0.4" transform="rotate(45 46 42.5)"/>
  <circle cx="50" cy="48" r="2" fill="#d32f2f" stroke="#7f0000" stroke-width="0.4"/>
  <line x1="49" y1="48" x2="51" y2="48" stroke="#ffeb3b" stroke-width="0.5"/>
  <line x1="50" y1="47" x2="50" y2="49" stroke="#ffeb3b" stroke-width="0.5"/>
  <circle cx="14" cy="56" r="0.8" fill="#eceff1" opacity="0.6"/>
</svg>
