<?xml version="1.0" encoding="UTF-8"?>
<svg xmlns="http://www.w3.org/2000/svg" viewBox="0 0 64 64" width="64" height="64">
  <defs>
    <radialGradient id="orCore" cx="0.4" cy="0.4" r="0.7">
      <stop offset="0%" stop-color="#ffffff"/>
      <stop offset="40%" stop-color="#80d8ff"/>
      <stop offset="100%" stop-color="#01579b"/>
    </radialGradient>
    <radialGradient id="orGlow" cx="0.5" cy="0.5" r="0.5">
      <stop offset="0%" stop-color="#80d8ff" stop-opacity="0.6"/>
      <stop offset="100%" stop-color="#80d8ff" stop-opacity="0"/>
    </radialGradient>
  </defs>
  <circle cx="32" cy="32" r="28" fill="url(#orGlow)"/>
  <path d="M 32,4 L 36,20 L 32,24 L 28,20 Z" fill="#bcaaa4" stroke="#3e2723" stroke-width="0.5"/>
  <circle cx="32" cy="32" r="20" fill="url(#orCore)" stroke="#01579b" stroke-width="1.2"/>
  <circle cx="32" cy="32" r="20" fill="none" stroke="#0288d1" stroke-width="0.5" opacity="0.6"/>
  <path d="M 26,28 Q 32,24 38,28 Q 34,32 38,36 Q 32,40 26,36 Q 30,32 26,28" fill="#e1f5fe" opacity="0.7"/>
  <circle cx="27" cy="26" r="2.5" fill="#ffffff" opacity="0.7"/>
  <circle cx="32" cy="32" r="2" fill="#e1f5fe" opacity="0.5"/>
  <path d="M 32,12 L 32,18 M 32,46 L 32,52 M 12,32 L 18,32 M 46,32 L 52,32" stroke="#80d8ff" stroke-width="0.6" opacity="0.5"/>
  <circle cx="32" cy="12" r="1" fill="#80d8ff"/>
  <circle cx="32" cy="52" r="1" fill="#80d8ff"/>
  <circle cx="12" cy="32" r="1" fill="#80d8ff"/>
  <circle cx="52" cy="32" r="1" fill="#80d8ff"/>
</svg>
